<?xml version="1.0" encoding="UTF-8" standalone="no"?>
<!DOCTYPE svg PUBLIC "-//W3C//DTD SVG 1.1//EN" "http://www.w3.org/Graphics/SVG/1.1/DTD/svg11.dtd">
<svg width="100%" height="100%" viewBox="0 0 32 32" version="1.1" xmlns="http://www.w3.org/2000/svg" xmlns:xlink="http://www.w3.org/1999/xlink" xml:space="preserve" xmlns:serif="http://www.serif.com/" style="fill-rule:evenodd;clip-rule:evenodd;stroke-linejoin:round;stroke-miterlimit:2;">
    <g transform="matrix(1.94911,0,0,1.94911,16.0226,16.1897)">
        <g transform="matrix(1,0,0,1,-8,-8)">
            <path d="M4,6C4,3.806 5.806,2 8,2C10.194,2 12,3.806 12,6C14.194,6 16,7.806 16,10C16,12.194 14.194,14 12,14L4,14C1.806,14 0,12.194 0,10C-0,7.806 1.806,6 4,6Z" style="fill:rgb(41,126,242);"/>
            <g transform="matrix(0.470158,0,0,0.470158,3.66458,6.88562)">
                <g transform="matrix(12,0,0,12,12.6862,9.16753)">
                </g>
                <text x="6.012px" y="9.168px" style="font-family:'ArialMT', 'Arial', sans-serif;font-size:12px;fill:white;">?</text>
            </g>
        </g>
    </g>
</svg>
